# xmcd
#
# Track frame offsets:
#	150
#	12893
#	26200
#	39250
#	52293
#	64237
#	76785
#	90540
#	103229
#	114914
#	127781
#	139751
#	152363
#	164409
#	176828
#	188580
#
# Disc length: 2686 seconds
#
# Revision: 1
# Processed by: cddbd v1.5.2PL0 Copyright (c) Steve Scherf et al.
# Submitted via: audiograbber 1.83.01
#
DISCID=c80a7c10
DTITLE=Cowboy Copas - Complete Hit Singles A's and B's CD1/2
DYEAR=2012
DGENRE=Country
TTITLE0=Filipino Baby (#4 Hit)
TTITLE1=I Don't Blame You
TTITLE2=Breeze (#12 Hit)
TTITLE3=Dolly Dear
TTITLE4=Signed, Sealed and Delivered (#2 Hit)
TTITLE5=Opportunity Is Knocking
TTITLE6=Tennessee Waltz (#3 Hit)
TTITLE7=How Much Do I Owe You
TTITLE8=Tennessee Moon (#7 Hit)
TTITLE9=The Hope of a Broken Heart
TTITLE10=I'm Waltzing with Tears in My Eyes (#12 Hit)
TTITLE11=Down in Nashville, Tennessee
TTITLE12=Candy Kisses (#5 Hit)
TTITLE13=Forever
TTITLE14=Hangman's Boogie (#14 Hit)
TTITLE15=Blue Pacific Waltz
EXTD=
EXTT0=
EXTT1=
EXTT2=
EXTT3=
EXTT4=
EXTT5=
EXTT6=
EXTT7=
EXTT8=
EXTT9=
EXTT10=
EXTT11=
EXTT12=
EXTT13=
EXTT14=
EXTT15=
PLAYORDER=
